<svg height="606" width="720" xmlns="http://www.w3.org/2000/svg">
<rect height="606" fill="#555" width="720"></rect>
<text fill="#7f7" font-family="Courier New" font-size="12" xml:space="preserve">
<tspan x="10" y="26">3 megabytes installed</tspan>
<tspan x="10" y="42"></tspan>
<tspan x="10" y="58">node_modules</tspan>
<tspan x="10" y="74">└─┬ tape@4.6.3 </tspan>
<tspan x="10" y="90">  ├── deep-equal@1.0.1 </tspan>
<tspan x="10" y="106">  ├── defined@1.0.0 </tspan>
<tspan x="10" y="122">  ├─┬ for-each@0.3.2 </tspan>
<tspan x="10" y="138">  │ └── is-function@1.0.1 </tspan>
<tspan x="10" y="154">  ├── function-bind@1.1.0 </tspan>
<tspan x="10" y="170">  ├─┬ glob@7.1.1 </tspan>
<tspan x="10" y="186">  │ ├── fs.realpath@1.0.0 </tspan>
<tspan x="10" y="202">  │ ├─┬ inflight@1.0.6 </tspan>
<tspan x="10" y="218">  │ │ └── wrappy@1.0.2 </tspan>
<tspan x="10" y="234">  │ ├─┬ minimatch@3.0.3 </tspan>
<tspan x="10" y="250">  │ │ └─┬ brace-expansion@1.1.7 </tspan>
<tspan x="10" y="266">  │ │   ├── balanced-match@0.4.2 </tspan>
<tspan x="10" y="282">  │ │   └── concat-map@0.0.1 </tspan>
<tspan x="10" y="298">  │ ├── once@1.4.0 </tspan>
<tspan x="10" y="314">  │ └── path-is-absolute@1.0.1 </tspan>
<tspan x="10" y="330">  ├── has@1.0.1 </tspan>
<tspan x="10" y="346">  ├── inherits@2.0.3 </tspan>
<tspan x="10" y="362">  ├── minimist@1.2.0 </tspan>
<tspan x="10" y="378">  ├── object-inspect@1.2.2 </tspan>
<tspan x="10" y="394">  ├── resolve@1.1.7 </tspan>
<tspan x="10" y="410">  ├── resumer@0.0.0 </tspan>
<tspan x="10" y="426">  ├─┬ string.prototype.trim@1.1.2 </tspan>
<tspan x="10" y="442">  │ ├─┬ define-properties@1.1.2 </tspan>
<tspan x="10" y="458">  │ │ ├── foreach@2.0.5 </tspan>
<tspan x="10" y="474">  │ │ └── object-keys@1.0.11 </tspan>
<tspan x="10" y="490">  │ └─┬ es-abstract@1.7.0 </tspan>
<tspan x="10" y="506">  │   ├─┬ es-to-primitive@1.1.1 </tspan>
<tspan x="10" y="522">  │   │ ├── is-date-object@1.0.1 </tspan>
<tspan x="10" y="538">  │   │ └── is-symbol@1.0.1 </tspan>
<tspan x="10" y="554">  │   ├── is-callable@1.1.3 </tspan>
<tspan x="10" y="570">  │   └── is-regex@1.0.4 </tspan>
<tspan x="10" y="586">  └── through@2.3.8</tspan>
</text>
</svg>
